<?xml version="1.0" encoding="UTF-8" standalone="no"?>
<!-- Created with Inkscape (http://www.inkscape.org/) -->

<svg
   width="125mm"
   height="125mm"
   viewBox="0 0 125 125"
   version="1.1"
   id="svg1"
   xml:space="preserve"
   inkscape:version="1.3 (0e150ed6c4, 2023-07-21)"
   sodipodi:docname="Gewitter_mittel.svg"
   inkscape:export-filename="Gewitter_mittel.png"
   inkscape:export-xdpi="32.512001"
   inkscape:export-ydpi="32.512001"
   xmlns:inkscape="http://www.inkscape.org/namespaces/inkscape"
   xmlns:sodipodi="http://sodipodi.sourceforge.net/DTD/sodipodi-0.dtd"
   xmlns="http://www.w3.org/2000/svg"
   xmlns:svg="http://www.w3.org/2000/svg"><sodipodi:namedview
     id="namedview1"
     pagecolor="#5b5b5b"
     bordercolor="#ffffff"
     borderopacity="0.46666667"
     inkscape:showpageshadow="0"
     inkscape:pageopacity="0"
     inkscape:pagecheckerboard="1"
     inkscape:deskcolor="#747474"
     inkscape:document-units="mm"
     inkscape:zoom="1.3879489"
     inkscape:cx="95.104366"
     inkscape:cy="279.90944"
     inkscape:window-width="1920"
     inkscape:window-height="1017"
     inkscape:window-x="3832"
     inkscape:window-y="497"
     inkscape:window-maximized="1"
     inkscape:current-layer="g15" /><defs
     id="defs1" /><g
     inkscape:label="Ebene 1"
     inkscape:groupmode="layer"
     id="layer1"><circle
       style="fill:#ffd200;fill-opacity:1;stroke-width:3;stroke-linecap:round;stroke-miterlimit:5"
       id="path12"
       cx="229.66702"
       cy="45.86834"
       r="37.363285" /><g
       id="g15"
       transform="matrix(0.89469791,0,0,0.89469791,6.1542699,11.771488)"><g
         id="g3"
         transform="matrix(0.89180958,0,0,0.89180958,134.46142,12.852286)"><g
           id="g14"
           transform="matrix(1.122367,0,0,1.122367,-150.83322,-14.471082)"><path
             style="fill:#7c7c7c;fill-opacity:1;stroke-width:3;stroke-linecap:round;stroke-miterlimit:5"
             d="m 36.791404,17.537868 c -1.83436,-13.1466864 9.4373,-22.1565125 19.63478,-19.0629005 4.58811,-11.5334285 23.4579,-13.0039215 26.78338,3.5266371 4.8523,-2.07203698 12.788738,1.351388 10.96116,10.4845954 4.430788,0.894955 9.056746,4.726516 11.342436,10.198653 17.90056,-6.886673 27.3438,21.15999 7.43453,25.544288 z"
             id="path13"
             sodipodi:nodetypes="ccccccc" /><path
             style="fill:#969696;fill-opacity:1;stroke-width:2.99526;stroke-linecap:round;stroke-miterlimit:5"
             d="M 26.380044,36.451712 C 32.764694,0.41374862 72.491274,4.5719336 82.525914,28.348347 112.0905,16.541732 127.75472,63.955642 93.681234,69.686142 l -73.04031,-0.21673 c -27.6193904,1.44828 -23.9773804,-41.31594 5.73912,-33.0177 z"
             id="path11"
             sodipodi:nodetypes="ccccc" /><path
             style="fill:#ffd200;fill-opacity:1;stroke:none;stroke-width:3;stroke-linecap:round;stroke-miterlimit:5"
             d="m 43.404012,57.153108 c 2.581743,-11.391106 18.575216,-8.249188 17.253766,2.695901 l -6.60496,21.02803 11.45758,-6.335369 c 5.32861,-1.827939 9.87143,1.63811 9.03127,7.818115 l -12.67073,38.686185 c -0.75983,3.34662 -6.91598,4.2089 -7.14414,-1.48275 l 4.85262,-28.846142 -12.13155,4.448238 c -2.330332,1.051687 -5.967514,-0.85246 -6.200578,-4.717827 z"
             id="path14"
             sodipodi:nodetypes="ccccccccccc" /></g><path
           style="fill:#00a3e7;fill-opacity:1;stroke-width:3.36886;stroke-linecap:round;stroke-miterlimit:5"
           d="m -64.011382,93.084771 c -2.871028,10.080789 11.61305,19.368929 19.079532,7.514529 2.754817,-4.373776 0.68066,-26.296005 -2.712568,-28.814222 -6.443678,12.520277 -14.564324,14.970245 -16.366964,21.299693 z"
           id="path1"
           sodipodi:nodetypes="sscs" /><path
           style="fill:#00a3e7;fill-opacity:1;stroke-width:3.36886;stroke-linecap:round;stroke-miterlimit:5"
           d="m -131.67307,71.287719 c -2.87102,10.08079 11.61305,19.368927 19.07954,7.514525 2.75481,-4.373773 0.68066,-26.296001 -2.71257,-28.814219 -6.44368,12.520277 -14.56433,14.970246 -16.36697,21.299694 z"
           id="path2"
           sodipodi:nodetypes="sscs" /></g></g></g></svg>
