<?xml version="1.0" encoding="UTF-8" standalone="no"?>
<!-- Created with Inkscape (http://www.inkscape.org/) -->

<svg
   width="125mm"
   height="125mm"
   viewBox="0 0 125 125"
   version="1.1"
   id="svg1"
   xml:space="preserve"
   inkscape:version="1.3 (0e150ed6c4, 2023-07-21)"
   sodipodi:docname="Gewitter_Hagel_schwer.svg"
   inkscape:export-filename="Gewitter_Hagel_schwer.png"
   inkscape:export-xdpi="32.512001"
   inkscape:export-ydpi="32.512001"
   xmlns:inkscape="http://www.inkscape.org/namespaces/inkscape"
   xmlns:sodipodi="http://sodipodi.sourceforge.net/DTD/sodipodi-0.dtd"
   xmlns="http://www.w3.org/2000/svg"
   xmlns:svg="http://www.w3.org/2000/svg"><sodipodi:namedview
     id="namedview1"
     pagecolor="#5b5b5b"
     bordercolor="#ffffff"
     borderopacity="0.46666667"
     inkscape:showpageshadow="0"
     inkscape:pageopacity="0"
     inkscape:pagecheckerboard="1"
     inkscape:deskcolor="#747474"
     inkscape:document-units="mm"
     inkscape:zoom="0.69397447"
     inkscape:cx="497.13644"
     inkscape:cy="140.49508"
     inkscape:window-width="1920"
     inkscape:window-height="1017"
     inkscape:window-x="3832"
     inkscape:window-y="497"
     inkscape:window-maximized="1"
     inkscape:current-layer="layer1" /><defs
     id="defs1" /><g
     inkscape:label="Ebene 1"
     inkscape:groupmode="layer"
     id="layer1"><circle
       style="fill:#ffd200;fill-opacity:1;stroke-width:3;stroke-linecap:round;stroke-miterlimit:5"
       id="path12"
       cx="229.66702"
       cy="45.86834"
       r="37.363285" /><g
       id="g3"
       transform="matrix(0.89329348,0,0,0.89329348,7.6828734,9.9125715)"><g
         id="g1"
         transform="translate(142.34359,14.018687)"><path
           style="fill:#4a4a4a;fill-opacity:1;stroke-width:3.00753;stroke-linecap:round;stroke-miterlimit:5"
           d="m -107.21643,5.5909468 c -1.83897,-13.1797016 9.460998,-22.2121538 19.684087,-19.1107728 4.599632,-11.562393 23.51681,-13.036579 26.850641,3.5354932 4.864486,-2.0772402 12.820855,1.3547818 10.988687,10.51092539 4.441915,0.89720251 9.07949,4.73838571 11.37092,10.22426441 17.945514,-6.903967 27.412469,21.21313 7.453201,25.608438 z"
           id="path13"
           sodipodi:nodetypes="ccccccc" /><path
           style="fill:#646464;fill-opacity:1;stroke-width:3.00278;stroke-linecap:round;stroke-miterlimit:5"
           d="m -117.65394,24.552289 c 6.40069,-36.128465 46.227031,-31.9598379 56.286871,-8.123715 29.638832,-11.8362647 45.342389,35.696716 11.183335,41.441607 l -73.223736,-0.217274 c -27.68875,1.451917 -24.0376,-41.419697 5.75353,-33.100618 z"
           id="path11"
           sodipodi:nodetypes="ccccc" /><path
           style="fill:#ffd200;fill-opacity:1;stroke:none;stroke-width:3.00753;stroke-linecap:round;stroke-miterlimit:5"
           d="m -100.58722,45.305673 c 2.588229,-11.419713 18.621866,-8.269905 17.297098,2.702671 l -6.621547,21.080838 11.486353,-6.35128 c 5.341992,-1.832529 9.89622,1.642224 9.05395,7.837749 l -12.70255,38.783339 c -0.761738,3.35502 -6.933348,4.21947 -7.162081,-1.48647 l 4.864807,-28.918588 -12.162016,4.459409 c -2.336184,1.054328 -5.982504,-0.854601 -6.216154,-4.729675 z"
           id="path14"
           sodipodi:nodetypes="ccccccccccc" /></g><g
         id="g2"
         transform="translate(142.34359,14.018687)"><circle
           style="fill:#ffffff;fill-opacity:1;stroke:none;stroke-width:3.00753;stroke-linecap:round;stroke-miterlimit:5"
           id="path15"
           cx="-118.30068"
           cy="73.051979"
           r="9.937602" /><circle
           style="fill:#ffffff;fill-opacity:1;stroke:none;stroke-width:3.00753;stroke-linecap:round;stroke-miterlimit:5"
           id="circle15"
           cx="-57.528423"
           cy="86.238419"
           r="9.937602" /><circle
           style="fill:#ffffff;fill-opacity:1;stroke:none;stroke-width:3.00753;stroke-linecap:round;stroke-miterlimit:5"
           id="circle1"
           cx="-132.31937"
           cy="100.01099"
           r="9.937602" /></g></g></g></svg>
