<?xml version="1.0" encoding="UTF-8" standalone="no"?>
<!-- Created with Inkscape (http://www.inkscape.org/) -->

<svg
   width="125mm"
   height="125mm"
   viewBox="0 0 125 125"
   version="1.1"
   id="svg1"
   xml:space="preserve"
   inkscape:version="1.3 (0e150ed6c4, 2023-07-21)"
   sodipodi:docname="Nebel_gefrierend.svg"
   inkscape:export-filename="Nebel_gefrierend.png"
   inkscape:export-xdpi="96"
   inkscape:export-ydpi="96"
   xmlns:inkscape="http://www.inkscape.org/namespaces/inkscape"
   xmlns:sodipodi="http://sodipodi.sourceforge.net/DTD/sodipodi-0.dtd"
   xmlns="http://www.w3.org/2000/svg"
   xmlns:svg="http://www.w3.org/2000/svg"><sodipodi:namedview
     id="namedview1"
     pagecolor="#505050"
     bordercolor="#ffffff"
     borderopacity="1"
     inkscape:showpageshadow="0"
     inkscape:pageopacity="0"
     inkscape:pagecheckerboard="1"
     inkscape:deskcolor="#d1d1d1"
     inkscape:document-units="mm"
     inkscape:zoom="0.9814281"
     inkscape:cx="102.4018"
     inkscape:cy="218.55906"
     inkscape:window-width="1920"
     inkscape:window-height="1017"
     inkscape:window-x="3832"
     inkscape:window-y="497"
     inkscape:window-maximized="1"
     inkscape:current-layer="layer1" /><defs
     id="defs1" /><g
     inkscape:label="Ebene 1"
     inkscape:groupmode="layer"
     id="layer1"><g
       id="g5"
       transform="translate(0,-0.26958984)"><g
         id="g3"
         transform="translate(-3.0125011,7.7682434)"><path
           style="fill:#29364b;fill-opacity:1;stroke:none;stroke-width:3;stroke-linecap:round;stroke-miterlimit:5"
           d="m 21.29762,104.06179 c -3.304004,0.0195 -5.135598,-5.616704 0.202193,-7.009344 10.834146,-3.112894 31.705287,-4.678825 32.216022,-12.198953 0.289896,-0.705861 -4.963458,-5.653216 -6.537563,-8.694282 -1.157306,-2.204772 -2.082711,-5.380313 0.80877,-8.559485 1.996299,-2.247789 5.581591,-3.890248 10.244426,-5.122214 2.759279,-0.73122 6.199294,3.4552 2.6959,6.470163 -2.168493,0.928606 -4.264741,1.604353 -6.672355,3.369879 1.86999,1.794904 4.894323,4.098087 6.941947,6.807149 2.401211,2.237902 8.993961,14.87757 -14.423072,24.937087 z"
           id="path1"
           sodipodi:nodetypes="ccccccccccc" /><path
           style="fill:#29364b;fill-opacity:1;stroke:none;stroke-width:3;stroke-linecap:round;stroke-miterlimit:5"
           d="m 72.915597,69.19833 c -1.038874,0.444801 -1.836373,0.889602 -2.430521,1.334403 6.952657,3.810945 27.453905,3.668954 33.441924,6.70484 8.41099,3.532117 15.19047,13.902655 -0.32013,26.845867 l -18.300389,-0.0953 C 82.805807,103.95943 80.83481,99.853234 83.972079,97.220805 87.74741,95.850526 100.17589,90.782499 99.508343,88.547184 97.397477,84.654305 78.234978,84.058729 65.385751,77.776645 62.715359,75.049485 58.83675,70.39304 65.195121,65.004501 c 1.532762,-1.008958 3.432138,-1.651301 5.337612,-2.287547 4.711506,0.198379 4.589155,4.894295 2.382864,6.481376 z"
           id="path2"
           sodipodi:nodetypes="ccccccccccc" /><path
           sodipodi:type="star"
           style="fill:#ffffff;fill-opacity:1;stroke:none;stroke-width:3;stroke-linecap:round;stroke-miterlimit:5"
           id="path3"
           inkscape:flatsided="false"
           sodipodi:sides="6"
           sodipodi:cx="30.786585"
           sodipodi:cy="77.490692"
           sodipodi:r1="13.73852"
           sodipodi:r2="6.284338"
           sodipodi:arg1="0.52359878"
           sodipodi:arg2="1.0471976"
           inkscape:rounded="0"
           inkscape:randomized="0"
           d="m 42.684492,84.359952 -8.755738,-1.426863 -3.142169,8.296123 -3.142169,-8.296124 -8.755738,1.426864 5.613569,-6.86926 -5.613569,-6.86926 8.755738,1.426864 3.142169,-8.296124 3.142169,8.296124 8.755738,-1.426864 -5.613569,6.86926 z"
           transform="matrix(1.0555021,0,0,1.0555021,-0.85088808,-4.205578)" /></g><g
         id="g4"
         transform="translate(0.63564044,-14.420894)"><path
           style="fill:#646464;fill-opacity:1;stroke:none;stroke-width:3;stroke-linecap:round;stroke-miterlimit:5"
           d="m 26.75682,39.629749 c -7.284819,-4.43076 -1.42373,-14.284268 6.133177,-10.783604 7.672948,5.340835 52.12258,-5.402038 57.3553,6.335368 2.368675,3.74981 -2.098928,12.176481 -9.368258,7.548523 C 67.658658,38.931675 37.519482,46.655605 26.75682,39.629749 Z"
           id="path1-6"
           sodipodi:nodetypes="ccccc" /><path
           style="fill:#646464;fill-opacity:1;stroke:none;stroke-width:3;stroke-linecap:round;stroke-miterlimit:5"
           d="m 37.742618,57.220505 c -7.284819,-4.43076 -1.42373,-14.284268 6.133177,-10.783604 7.672948,5.340835 52.12258,-5.402038 57.355295,6.335368 2.36868,3.74981 -2.098923,12.176481 -9.368253,7.548523 C 78.644456,56.522431 48.50528,64.246361 37.742618,57.220505 Z"
           id="path2-9"
           sodipodi:nodetypes="ccccc" /><path
           style="fill:#646464;fill-opacity:1;stroke:none;stroke-width:3;stroke-linecap:round;stroke-miterlimit:5"
           d="m 26.622025,75.417839 c -7.284819,-4.43076 -1.42373,-14.284268 6.133177,-10.783604 7.672948,5.340835 52.12258,-5.402038 57.355295,6.335368 2.36868,3.74981 -2.098923,12.176481 -9.368253,7.548523 -13.218381,-3.798361 -43.357557,3.925569 -54.120219,-3.100287 z"
           id="path3-7"
           sodipodi:nodetypes="ccccc" /></g></g></g></svg>
