<?xml version="1.0" encoding="UTF-8" standalone="no"?>
<!-- Created with Inkscape (http://www.inkscape.org/) -->

<svg
   width="125mm"
   height="125mm"
   viewBox="0 0 125 125"
   version="1.1"
   id="svg1"
   xml:space="preserve"
   inkscape:version="1.3 (0e150ed6c4, 2023-07-21)"
   sodipodi:docname="Nebel.svg"
   inkscape:export-filename="Nebel.png"
   inkscape:export-xdpi="96"
   inkscape:export-ydpi="96"
   xmlns:inkscape="http://www.inkscape.org/namespaces/inkscape"
   xmlns:sodipodi="http://sodipodi.sourceforge.net/DTD/sodipodi-0.dtd"
   xmlns="http://www.w3.org/2000/svg"
   xmlns:svg="http://www.w3.org/2000/svg"><sodipodi:namedview
     id="namedview1"
     pagecolor="#505050"
     bordercolor="#ffffff"
     borderopacity="1"
     inkscape:showpageshadow="0"
     inkscape:pageopacity="0"
     inkscape:pagecheckerboard="1"
     inkscape:deskcolor="#d1d1d1"
     inkscape:document-units="mm"
     inkscape:zoom="0.9814281"
     inkscape:cx="297.52562"
     inkscape:cy="284.78907"
     inkscape:window-width="1920"
     inkscape:window-height="1017"
     inkscape:window-x="3832"
     inkscape:window-y="497"
     inkscape:window-maximized="1"
     inkscape:current-layer="layer1" /><defs
     id="defs1" /><g
     inkscape:label="Ebene 1"
     inkscape:groupmode="layer"
     id="layer1"><g
       id="g4"
       transform="translate(-0.08053647,-0.55478897)"><path
         style="fill:#646464;fill-opacity:1;stroke:none;stroke-width:3;stroke-linecap:round;stroke-miterlimit:5"
         d="m 26.75682,39.629749 c -7.284819,-4.43076 -1.42373,-14.284268 6.133177,-10.783604 7.672948,5.340835 52.12258,-5.402038 57.3553,6.335368 2.368675,3.74981 -2.098928,12.176481 -9.368258,7.548523 C 67.658658,38.931675 37.519482,46.655605 26.75682,39.629749 Z"
         id="path1"
         sodipodi:nodetypes="ccccc" /><path
         style="fill:#646464;fill-opacity:1;stroke:none;stroke-width:3;stroke-linecap:round;stroke-miterlimit:5"
         d="m 37.742618,57.220505 c -7.284819,-4.43076 -1.42373,-14.284268 6.133177,-10.783604 7.672948,5.340835 52.12258,-5.402038 57.355295,6.335368 2.36868,3.74981 -2.098923,12.176481 -9.368253,7.548523 C 78.644456,56.522431 48.50528,64.246361 37.742618,57.220505 Z"
         id="path2"
         sodipodi:nodetypes="ccccc" /><path
         style="fill:#646464;fill-opacity:1;stroke:none;stroke-width:3;stroke-linecap:round;stroke-miterlimit:5"
         d="m 26.622025,75.417839 c -7.284819,-4.43076 -1.42373,-14.284268 6.133177,-10.783604 7.672948,5.340835 52.12258,-5.402038 57.355295,6.335368 2.36868,3.74981 -2.098923,12.176481 -9.368253,7.548523 -13.218381,-3.798361 -43.357557,3.925569 -54.120219,-3.100287 z"
         id="path3"
         sodipodi:nodetypes="ccccc" /><path
         style="fill:#646464;fill-opacity:1;stroke:none;stroke-width:3;stroke-linecap:round;stroke-miterlimit:5"
         d="m 33.294381,93.547776 c -7.284819,-4.43076 -1.42373,-14.284268 6.133177,-10.783604 7.672948,5.340835 52.12258,-5.402038 57.355295,6.335368 2.36868,3.74981 -2.098923,12.17648 -9.368253,7.548523 -13.218381,-3.798361 -43.357557,3.925567 -54.120219,-3.100287 z"
         id="path4"
         sodipodi:nodetypes="ccccc" /></g></g></svg>
