<?xml version="1.0" encoding="UTF-8" standalone="no"?>
<!-- Created with Inkscape (http://www.inkscape.org/) -->

<svg
   width="125mm"
   height="125mm"
   viewBox="0 0 125 125"
   version="1.1"
   id="svg1"
   xml:space="preserve"
   inkscape:version="1.3 (0e150ed6c4, 2023-07-21)"
   sodipodi:docname="Regenschauer_schwer.svg"
   inkscape:export-filename="Regenschauer_schwer.png"
   inkscape:export-xdpi="32.512001"
   inkscape:export-ydpi="32.512001"
   xmlns:inkscape="http://www.inkscape.org/namespaces/inkscape"
   xmlns:sodipodi="http://sodipodi.sourceforge.net/DTD/sodipodi-0.dtd"
   xmlns="http://www.w3.org/2000/svg"
   xmlns:svg="http://www.w3.org/2000/svg"><sodipodi:namedview
     id="namedview1"
     pagecolor="#505050"
     bordercolor="#ffffff"
     borderopacity="1"
     inkscape:showpageshadow="0"
     inkscape:pageopacity="0"
     inkscape:pagecheckerboard="1"
     inkscape:deskcolor="#d1d1d1"
     inkscape:document-units="mm"
     inkscape:zoom="0.69397447"
     inkscape:cx="136.17216"
     inkscape:cy="72.769248"
     inkscape:window-width="1920"
     inkscape:window-height="1017"
     inkscape:window-x="3832"
     inkscape:window-y="497"
     inkscape:window-maximized="1"
     inkscape:current-layer="layer1" /><defs
     id="defs1" /><g
     inkscape:label="Ebene 1"
     inkscape:groupmode="layer"
     id="layer1"><g
       id="g1"
       transform="translate(3.4313217,0.21713004)"><g
         id="g12"
         transform="translate(-96.732465,-61.456345)"><circle
           style="fill:#ffd200;fill-opacity:1;stroke-width:3;stroke-linecap:round;stroke-miterlimit:5"
           id="path12"
           cx="176.25581"
           cy="102.64818"
           r="37.363285" /><path
           style="fill:#646464;fill-opacity:1;stroke-width:2.99526;stroke-linecap:round;stroke-miterlimit:5"
           d="m 122.49725,108.2175 c 6.38465,-36.037968 46.11123,-31.879784 56.14587,-8.10337 29.56459,-11.806615 45.22881,35.6073 11.15532,41.3378 l -73.04031,-0.21673 c -27.619389,1.44828 -23.977376,-41.315945 5.73912,-33.0177 z"
           id="path11"
           sodipodi:nodetypes="ccccc" /></g><path
         style="fill:#00a3e7;fill-opacity:1;stroke-width:3.02337;stroke-linecap:round;stroke-miterlimit:5"
         d="m 29.492449,82.35258 c -2.576592,9.046977 10.422094,17.382587 17.12287,6.743877 2.47231,-3.925218 0.61086,-23.599262 -2.43439,-25.85923 -5.782856,11.23629 -13.070714,13.435007 -14.68848,19.115353 z"
         id="path2"
         sodipodi:nodetypes="sscs" /><path
         style="fill:#00a3e7;fill-opacity:1;stroke-width:3.02337;stroke-linecap:round;stroke-miterlimit:5"
         d="m 55.848819,100.98828 c -2.57659,9.04698 10.42209,17.38259 17.12287,6.74388 2.47231,-3.92522 0.61086,-23.599267 -2.43439,-25.859235 -5.78286,11.23629 -13.07071,13.435007 -14.68848,19.115355 z"
         id="path2-4"
         sodipodi:nodetypes="sscs" /><path
         style="fill:#00a3e7;fill-opacity:1;stroke-width:3.02337;stroke-linecap:round;stroke-miterlimit:5"
         d="m 5.0854848,109.00295 c -2.576592,9.04698 10.4220902,17.38259 17.1228702,6.74388 2.47231,-3.92522 0.61086,-23.599258 -2.43439,-25.859226 C 13.991105,101.12389 6.7032548,103.32261 5.0854848,109.00295 Z"
         id="path2-2"
         sodipodi:nodetypes="sscs" /></g></g></svg>
