<?xml version="1.0" encoding="UTF-8" standalone="no"?>
<!-- Created with Inkscape (http://www.inkscape.org/) -->

<svg
   width="125mm"
   height="125mm"
   viewBox="0 0 125 125"
   version="1.1"
   id="svg1"
   xml:space="preserve"
   inkscape:version="1.3 (0e150ed6c4, 2023-07-21)"
   sodipodi:docname="Regen_schwer.svg"
   inkscape:export-filename="Regen_schwer.png"
   inkscape:export-xdpi="96"
   inkscape:export-ydpi="96"
   xmlns:inkscape="http://www.inkscape.org/namespaces/inkscape"
   xmlns:sodipodi="http://sodipodi.sourceforge.net/DTD/sodipodi-0.dtd"
   xmlns="http://www.w3.org/2000/svg"
   xmlns:svg="http://www.w3.org/2000/svg"><sodipodi:namedview
     id="namedview1"
     pagecolor="#505050"
     bordercolor="#ffffff"
     borderopacity="1"
     inkscape:showpageshadow="0"
     inkscape:pageopacity="0"
     inkscape:pagecheckerboard="1"
     inkscape:deskcolor="#d1d1d1"
     inkscape:document-units="mm"
     inkscape:zoom="1.3879489"
     inkscape:cx="140.49509"
     inkscape:cy="233.07775"
     inkscape:window-width="1920"
     inkscape:window-height="1017"
     inkscape:window-x="3832"
     inkscape:window-y="497"
     inkscape:window-maximized="1"
     inkscape:current-layer="layer1" /><defs
     id="defs1" /><g
     inkscape:label="Ebene 1"
     inkscape:groupmode="layer"
     id="layer1"><g
       id="g1"
       transform="translate(-1.2512527e-7,-16.23957)"><path
         style="fill:#646464;fill-opacity:1;stroke-width:3;stroke-linecap:round;stroke-miterlimit:5"
         d="M 31.403508,59.130745 C 37.798256,23.035796 77.587639,27.200554 87.638157,51.014558 117.2495,39.189279 132.93847,86.678163 98.8111,92.417733 L 25.655317,92.200673 C -2.0077513,93.651233 1.6400121,50.819379 31.403508,59.130745 Z"
         id="path11"
         sodipodi:nodetypes="ccccc" /><path
         style="fill:#00a3e7;fill-opacity:1;stroke-width:3.02337;stroke-linecap:round;stroke-miterlimit:5"
         d="m 34.778138,95.243503 c -2.576592,9.046977 10.422094,17.382587 17.122871,6.743877 2.472305,-3.925218 0.610859,-23.599262 -2.434387,-25.85923 -5.78286,11.23629 -13.070718,13.435007 -14.688484,19.115353 z"
         id="path2"
         sodipodi:nodetypes="sscs" /><path
         style="fill:#00a3e7;fill-opacity:1;stroke-width:3.02337;stroke-linecap:round;stroke-miterlimit:5"
         d="m 61.275571,113.16263 c -2.576592,9.04698 10.422094,17.38259 17.122871,6.74388 2.472305,-3.92522 0.610859,-23.599264 -2.434387,-25.859232 -5.78286,11.236292 -13.070718,13.435002 -14.688484,19.115352 z"
         id="path1"
         sodipodi:nodetypes="sscs" /><path
         style="fill:#00a3e7;fill-opacity:1;stroke-width:3.02337;stroke-linecap:round;stroke-miterlimit:5"
         d="m 10.186995,121.74094 c -2.5765921,9.04697 10.422094,17.38258 17.122871,6.74387 2.472305,-3.92521 0.610859,-23.59926 -2.434387,-25.85923 -5.78286,11.23629 -13.070718,13.43501 -14.688484,19.11536 z"
         id="path3"
         sodipodi:nodetypes="sscs" /></g></g></svg>
