<?xml version="1.0" encoding="UTF-8" standalone="no"?>
<svg
   height="20"
   viewBox="0 -960 640 800"
   width="16"
   version="1.1"
   id="svg1"
   sodipodi:docname="Humidity.svg"
   inkscape:version="1.3 (0e150ed6c4, 2023-07-21)"
   xmlns:inkscape="http://www.inkscape.org/namespaces/inkscape"
   xmlns:sodipodi="http://sodipodi.sourceforge.net/DTD/sodipodi-0.dtd"
   xmlns="http://www.w3.org/2000/svg"
   xmlns:svg="http://www.w3.org/2000/svg">
  <defs
     id="defs1" />
  <sodipodi:namedview
     id="namedview1"
     pagecolor="#505050"
     bordercolor="#ffffff"
     borderopacity="1"
     inkscape:showpageshadow="0"
     inkscape:pageopacity="0"
     inkscape:pagecheckerboard="1"
     inkscape:deskcolor="#d1d1d1"
     inkscape:zoom="22.951508"
     inkscape:cx="2.5706372"
     inkscape:cy="11.045026"
     inkscape:window-width="1920"
     inkscape:window-height="1017"
     inkscape:window-x="3832"
     inkscape:window-y="497"
     inkscape:window-maximized="1"
     inkscape:current-layer="svg1" />
  <path
     d="m 420,-320 q 25,0 42.5,-17.5 Q 480,-355 480,-380 480,-405 462.5,-422.5 445,-440 420,-440 q -25,0 -42.5,17.5 -17.5,17.5 -17.5,42.5 0,25 17.5,42.5 17.5,17.5 42.5,17.5 z m -202,-2 260,-260 -56,-56 -260,260 z m 2,-198 q 25,0 42.5,-17.5 Q 280,-555 280,-580 280,-605 262.5,-622.5 245,-640 220,-640 q -25,0 -42.5,17.5 -17.5,17.5 -17.5,42.5 0,25 17.5,42.5 17.5,17.5 42.5,17.5 z m 100,360 Q 183,-160 91.5,-254 0,-348 0,-488 0,-588 79.5,-705.5 159,-823 320,-960 481,-823 560.5,-705.5 640,-588 640,-488 q 0,140 -91.5,234 -91.5,94 -228.5,94 z m 0,-80 q 104,0 172,-70.5 68,-70.5 68,-177.5 0,-73 -60.5,-165 Q 439,-745 320,-854 201,-745 140.5,-653 80,-561 80,-488 q 0,107 68,177.5 68,70.5 172,70.5 z m 0,-320 z"
     id="path1"
     style="fill:#ffffff;stroke:none" />
</svg>
