<?xml version="1.0" encoding="UTF-8" standalone="no"?>
<!-- Created with Inkscape (http://www.inkscape.org/) -->

<svg
   width="956.44299mm"
   height="956.44299mm"
   viewBox="0 0 956.44299 956.44299"
   version="1.1"
   id="svg5"
   xml:space="preserve"
   inkscape:export-filename="Precipitation.png"
   inkscape:export-xdpi="2.6556745"
   inkscape:export-ydpi="2.6556745"
   sodipodi:docname="Precipitation.svg"
   inkscape:version="1.3 (0e150ed6c4, 2023-07-21)"
   xmlns:inkscape="http://www.inkscape.org/namespaces/inkscape"
   xmlns:sodipodi="http://sodipodi.sourceforge.net/DTD/sodipodi-0.dtd"
   xmlns="http://www.w3.org/2000/svg"
   xmlns:svg="http://www.w3.org/2000/svg"><sodipodi:namedview
     id="namedview7"
     pagecolor="#505050"
     bordercolor="#ffffff"
     borderopacity="1"
     inkscape:showpageshadow="0"
     inkscape:pageopacity="0"
     inkscape:pagecheckerboard="1"
     inkscape:deskcolor="#505050"
     inkscape:document-units="mm"
     showgrid="false"
     showguides="true"
     inkscape:zoom="0.088321515"
     inkscape:cx="-62.272483"
     inkscape:cy="1341.6889"
     inkscape:window-width="1920"
     inkscape:window-height="1017"
     inkscape:window-x="3832"
     inkscape:window-y="497"
     inkscape:window-maximized="1"
     inkscape:current-layer="layer1" /><defs
     id="defs2" /><g
     inkscape:label="Ebene 1"
     inkscape:groupmode="layer"
     id="layer1"
     transform="translate(276.44083,393.2917)"><g
       id="g1"
       transform="translate(190.45367)"><path
         style="fill:#ffffff;stroke:#ffffff;stroke-width:40;stroke-linecap:round;stroke-miterlimit:5;stroke-dasharray:none;stop-color:#000000"
         d="m -56.277557,166.82043 c 38.56759,123.78124 48.9898198,280.61627 0.80766,333.86498 -39.498757,53.28708 -114.012373,52.72755 -161.029543,18.74307 -59.11687,-42.73026 -48.75271,-139.87634 5.72774,-182.44277 31.78034,-22.20273 62.20916,-42.50969 82.02527,-58.33547 61.477833,-49.09819 59.247993,-75.79552 72.468873,-111.82981 z"
         id="path356"
         sodipodi:nodetypes="ccscsc"
         inkscape:transform-center-x="-2.0168812"
         inkscape:transform-center-y="-76.530479" /><path
         style="fill:#ffffff;stroke:#ffffff;stroke-width:40;stroke-linecap:round;stroke-miterlimit:5;stroke-dasharray:none;stop-color:#000000"
         d="m -49.778251,-331.01686 c 38.567591,123.78124 48.98982067,280.616279 0.80766,333.8649889 -39.49876,53.2870801 -114.012379,52.7275501 -161.029549,18.7430701 -59.11686,-42.73026 -48.75271,-139.876339 5.72774,-182.442769 31.78034,-22.20274 62.20916,-42.5097 82.02527,-58.33548 61.477839,-49.09819 59.247999,-75.79552 72.468879,-111.82981 z"
         id="path1060"
         sodipodi:nodetypes="ccscsc"
         inkscape:transform-center-x="-2.0168812"
         inkscape:transform-center-y="-76.530479" /><path
         style="fill:#ffffff;stroke:#ffffff;stroke-width:40;stroke-linecap:round;stroke-miterlimit:5;stroke-dasharray:none;stop-color:#000000"
         d="m 245.9966,-147.66801 c 38.56759,123.781241 48.98982,280.61628 0.80766,333.86499 -39.49876,53.28708 -114.01238,52.72755 -161.029554,18.74307 -59.11686,-42.73026 -48.75271,-139.876339 5.72774,-182.442769 31.780344,-22.20273964 62.209164,-42.5097 82.025274,-58.33548 61.47784,-49.09819 59.248,-75.795521 72.46888,-111.829811 z"
         id="path1062"
         sodipodi:nodetypes="ccscsc"
         inkscape:transform-center-x="-2.0168812"
         inkscape:transform-center-y="-76.530479" /></g></g></svg>
